<svg width="140" height="140" viewBox="0 0 140 140" fill="none" xmlns="http://www.w3.org/2000/svg">
  <circle cx="70" cy="70" r="52" stroke="#2F3B2E" stroke-width="1.4"/>
  <g transform="translate(70 70)" fill="#F0A93B">
    <circle r="9"/>
    <path d="M0 -28 L4 -11 L0 -14 L-4 -11 Z" transform="rotate(0)"/><path d="M0 -28 L4 -11 L0 -14 L-4 -11 Z" transform="rotate(15)"/><path d="M0 -28 L4 -11 L0 -14 L-4 -11 Z" transform="rotate(30)"/><path d="M0 -28 L4 -11 L0 -14 L-4 -11 Z" transform="rotate(45)"/><path d="M0 -28 L4 -11 L0 -14 L-4 -11 Z" transform="rotate(60)"/><path d="M0 -28 L4 -11 L0 -14 L-4 -11 Z" transform="rotate(75)"/><path d="M0 -28 L4 -11 L0 -14 L-4 -11 Z" transform="rotate(90)"/><path d="M0 -28 L4 -11 L0 -14 L-4 -11 Z" transform="rotate(105)"/><path d="M0 -28 L4 -11 L0 -14 L-4 -11 Z" transform="rotate(120)"/><path d="M0 -28 L4 -11 L0 -14 L-4 -11 Z" transform="rotate(135)"/><path d="M0 -28 L4 -11 L0 -14 L-4 -11 Z" transform="rotate(150)"/><path d="M0 -28 L4 -11 L0 -14 L-4 -11 Z" transform="rotate(165)"/><path d="M0 -28 L4 -11 L0 -14 L-4 -11 Z" transform="rotate(180)"/><path d="M0 -28 L4 -11 L0 -14 L-4 -11 Z" transform="rotate(195)"/><path d="M0 -28 L4 -11 L0 -14 L-4 -11 Z" transform="rotate(210)"/><path d="M0 -28 L4 -11 L0 -14 L-4 -11 Z" transform="rotate(225)"/><path d="M0 -28 L4 -11 L0 -14 L-4 -11 Z" transform="rotate(240)"/><path d="M0 -28 L4 -11 L0 -14 L-4 -11 Z" transform="rotate(255)"/><path d="M0 -28 L4 -11 L0 -14 L-4 -11 Z" transform="rotate(270)"/><path d="M0 -28 L4 -11 L0 -14 L-4 -11 Z" transform="rotate(285)"/><path d="M0 -28 L4 -11 L0 -14 L-4 -11 Z" transform="rotate(300)"/><path d="M0 -28 L4 -11 L0 -14 L-4 -11 Z" transform="rotate(315)"/><path d="M0 -28 L4 -11 L0 -14 L-4 -11 Z" transform="rotate(330)"/><path d="M0 -28 L4 -11 L0 -14 L-4 -11 Z" transform="rotate(345)"/>
  </g>
</svg>