<svg width="420" height="640" viewBox="0 0 420 640" fill="none" xmlns="http://www.w3.org/2000/svg">
  <g opacity="0.62" stroke="#A9B6A1" stroke-width="2.2" stroke-linecap="round" stroke-linejoin="round">
    <path d="M388 638C373 560 352 497 316 433C287 380 247 337 191 294" />
    <path d="M248 354C278 344 302 333 322 314C306 301 281 296 258 302C243 306 231 315 223 328C226 338 236 349 248 354Z" />
    <path d="M285 406C320 398 348 381 371 354C352 341 322 338 293 347C274 353 259 365 249 381C254 392 267 401 285 406Z" />
    <path d="M161 301C184 283 199 260 206 232C181 230 157 239 140 257C129 269 123 284 124 298C133 305 147 307 161 301Z" />
    <path d="M201 389C231 377 254 355 268 325C241 321 213 327 190 343C176 353 166 366 162 381C170 391 186 394 201 389Z" />
    <path d="M349 521C385 512 411 490 420 459C395 454 367 460 345 477C330 489 320 504 318 519C326 527 338 529 349 521Z" />
    <path d="M330 595C359 588 382 571 396 548C374 542 350 545 330 557C316 566 306 578 303 590C310 598 319 599 330 595Z" />
    <path d="M152 253C175 233 188 209 191 179C168 180 146 191 130 209C119 221 114 235 115 248C123 255 138 257 152 253Z" />
    <path d="M223 327C219 309 217 291 217 270C217 235 225 199 243 161" />
    <path d="M247 159C269 145 285 125 294 99C272 96 251 101 236 115C226 124 220 136 219 149C225 157 236 161 247 159Z" />
    <path d="M241 212C270 200 294 179 311 152C286 146 258 150 237 165C223 175 214 188 211 201C217 210 229 214 241 212Z" />
  </g>
</svg>
